#!OML:ASF I:\Random Stuff\random\construction\7_22_03\Session 2\subj1.ASF
:FULLY-SPECIFIED
:DEGREES
677
root -8.88645 17.6895 -5.45474 -497.33 71.5896 -511.563
lowerback 13.166 1.89396 -5.52709
upperback 5.61244 2.38124 -8.96064
thorax -1.23458 1.52871 -6.71568
lowerneck -20.5222 -3.90521 -0.370019
upperneck 34.1471 -7.07078 6.76798
head 15.8807 -1.67849 1.6857
rclavicle 9.54166e-014 1.27222e-014
rhumerus 18.4093 67.5418 -36.3004
rradius 77.3508
rwrist -36.7192
rhand -16.1866 -10.2765
rfingers 7.12502
rthumb 10.0201 -40.018
lclavicle 9.54166e-014 1.27222e-014
lhumerus 16.7053 -64.2333 78.2543
lradius 34.0999
lwrist -9.67031
lhand -27.1697 56.5808
lfingers 7.12502
lthumb -0.583988 86.5597
rfemur -8.08941 -8.60027 23.0449
rtibia 1.27222e-014
rfoot -2.82749 -9.13138
rtoes -19.0985
lfemur -33.1127 -6.95211 -4.46348
ltibia 33.1681
lfoot -14.4282 0.977024
ltoes -31.8566
678
root -8.87986 17.6925 -5.45256 -497.189 71.5465 -511.398
lowerback 13.1629 1.88274 -5.57122
upperback 5.60667 2.36049 -8.95506
thorax -1.24236 1.51732 -6.68147
lowerneck -20.488 -3.87253 -0.265203
upperneck 34.2454 -7.00442 6.62149
head 15.9034 -1.65416 1.62079
rclavicle 1.90833e-014 4.13472e-014
rhumerus 18.5788 67.4872 -36.1663
rradius 77.1208
rwrist -39.6281
rhand -15.9947 -10.1657
rfingers 7.12502
rthumb 10.2052 -39.8982
lclavicle 1.90833e-014 4.13472e-014
lhumerus 16.3864 -64.0215 78.5207
lradius 34.0621
lwrist -9.63698
lhand -27.395 56.3807
lfingers 7.12502
lthumb -0.801622 86.359
rfemur -8.0353 -8.59275 23.1242
rtibia -2.14687e-014
rfoot -2.90469 -9.12422
rtoes -18.5853
lfemur -33.0237 -6.91447 -4.38275
ltibia 33.0821
lfoot -14.4417 0.930254
ltoes -31.5775
679
root -8.87195 17.6987 -5.45039 -497.002 71.5818 -511.163
lowerback 13.1495 1.89866 -5.65869
upperback 5.60247 2.37215 -8.94939
thorax -1.24166 1.52158 -6.62651
lowerneck -20.4623 -3.86037 -0.252063
upperneck 34.2883 -6.98082 6.59924
head 15.9151 -1.64411 1.61526
rclavicle 3.33958e-014 -9.85972e-014
rhumerus 18.9962 67.6204 -35.6714
rradius 77.0049
rwrist -41.4727
rhand -16.1212 -10.2727
rfingers 7.12502
rthumb 10.0833 -40.0112
lclavicle 3.33958e-014 -9.85972e-014
lhumerus 16.0524 -63.8352 78.7807
lradius 34.0485
lwrist -9.48113
lhand -27.706 56.301
lfingers 7.12502
lthumb -1.10192 86.2779
rfemur -7.94888 -8.51251 23.1676
rtibia 6.36111e-015
rfoot -2.99977 -9.12586
rtoes -17.7289
lfemur -32.8755 -6.88158 -4.34
ltibia 32.9836
lfoot -14.4385 1.01783
ltoes -31.9553
680
root -8.86566 17.703 -5.44985 -496.92 71.6802 -511.079
lowerback 13.0911 1.93167 -5.79463
upperback 5.59433 2.40704 -8.9675
thorax -1.2193 1.53779 -6.57097
lowerneck -20.3937 -3.84007 -0.228502
upperneck 34.2614 -6.95652 6.60679
head 15.8838 -1.63194 1.61917
rclavicle 1.27222e-014 -5.08889e-014
rhumerus 19.3702 67.7758 -35.1439
rradius 76.9035
rwrist -42.1277
rhand -16.1094 -10.2769
rfingers 7.12502
rthumb 10.0946 -40.0148
lclavicle 1.27222e-014 -5.08889e-014
lhumerus 15.8098 -63.6888 78.9923
lradius 34.0187
lwrist -9.30866
lhand -27.9377 56.2494
lfingers 7.12502
lthumb -1.3257 86.2251
rfemur -7.91917 -8.41839 23.1321
rtibia -1.43125e-014
rfoot -3.00702 -9.14883
rtoes -17.4935
lfemur -32.7792 -6.86571 -4.38071
ltibia 32.9028
lfoot -14.4105 1.17109
ltoes -32.5927
681
root -8.86172 17.7035 -5.44941 -496.741 71.726 -510.912
lowerback 13.0248 1.95955 -5.85624
upperback 5.57657 2.44072 -8.96649
thorax -1.20197 1.55272 -6.53627
lowerneck -20.3048 -3.79663 -0.246433
upperneck 34.2385 -6.90825 6.69898
head 15.8556 -1.60182 1.67234
rclavicle -2.8625e-014 6.04305e-014
rhumerus 19.8226 67.9706 -34.4832
rradius 76.8473
rwrist -42.2062
rhand -16.0774 -10.1066
rfingers 7.12502
rthumb 10.1254 -39.843
lclavicle -2.8625e-014 6.04305e-014
lhumerus 15.6294 -63.6032 79.1627
lradius 34.0007
lwrist -9.22219
lhand -27.9872 56.1364
lfingers 7.12502
lthumb -1.37352 86.1117
rfemur -7.93495 -8.34383 23.1565
rtibia 3.97569e-015
rfoot -2.9795 -9.19229
rtoes -17.695
lfemur -32.7428 -6.84899 -4.35459
ltibia 32.8505
lfoot -14.381 1.26851
ltoes -32.9453
